<?xml version="1.0" standalone="no"?>
<!DOCTYPE svg PUBLIC "-//W3C//DTD SVG 20010904//EN"
 "http://www.w3.org/TR/2001/REC-SVG-20010904/DTD/svg10.dtd">
<svg version="1.0" xmlns="http://www.w3.org/2000/svg"
 width="500.000000pt" height="500.000000pt" viewBox="0 0 500.000000 500.000000"
 preserveAspectRatio="xMidYMid meet">

<g transform="translate(0.000000,500.000000) scale(0.100000,-0.100000)"
fill="#000000" stroke="none">
<path d="M1950 4502 c-189 -71 -444 -268 -611 -472 -94 -115 -229 -344 -229
-388 0 -24 31 -52 57 -52 26 0 44 22 78 95 65 139 177 291 315 425 98 95 106
101 219 178 185 123 280 151 332 96 46 -49 28 -203 -48 -426 -15 -43 -32 -78
-39 -78 -19 0 -166 -77 -204 -107 -105 -83 -189 -194 -237 -315 -45 -109 -16
-210 67 -239 90 -31 174 8 247 116 36 53 115 207 164 320 26 61 54 111 61 113
24 5 50 -34 51 -75 0 -21 -3 -64 -7 -95 -6 -50 -12 -60 -44 -84 -93 -68 -167
-178 -156 -234 13 -61 87 -97 147 -69 25 11 70 88 107 184 13 33 29 63 34 67
17 12 112 9 139 -3 l25 -11 -47 -62 c-55 -72 -102 -173 -109 -232 -9 -79 46
-144 120 -144 69 1 163 77 204 165 30 62 33 166 7 220 -15 31 -15 37 -2 49 17
17 96 36 141 35 42 -1 103 -22 103 -36 0 -6 -17 -30 -38 -52 -100 -108 -107
-239 -16 -287 75 -38 166 11 212 115 23 52 30 132 16 170 -13 32 4 46 116 101
92 45 184 65 255 57 54 -7 131 -37 156 -62 22 -21 41 -19 70 10 23 23 24 26
10 53 -21 40 -117 89 -205 104 -119 20 -270 -18 -408 -104 l-62 -39 -38 25
c-105 70 -270 69 -381 -2 -20 -13 -25 -13 -40 0 -31 26 -76 41 -141 47 l-64 6
2 72 c3 95 -21 150 -82 194 l-44 31 33 103 c77 237 79 391 7 468 -63 66 -150
83 -243 49z m30 -769 c0 -22 -165 -335 -195 -370 -37 -43 -75 -58 -102 -38
-40 30 23 176 122 283 78 84 175 153 175 125z m522 -430 c0 -52 -9 -81 -39
-121 -20 -27 -69 -62 -88 -62 -24 0 22 117 77 198 34 50 49 45 50 -15z m398
-22 c-11 -42 -43 -81 -67 -81 -27 0 -13 49 31 104 36 44 52 35 36 -23z"/>
<path d="M2818 4164 c4 -24 3 -25 -16 -15 -18 9 -20 8 -16 -12 2 -12 2 -16 -2
-9 -8 17 -24 15 -24 -4 0 -8 -4 -13 -8 -10 -9 5 -21 -14 -42 -71 -7 -18 -16
-33 -21 -33 -12 0 -21 -38 -14 -60 9 -30 39 -42 68 -29 35 16 108 173 93 198
-4 5 0 12 6 15 11 5 11 7 0 12 -6 3 -10 9 -7 14 3 4 -1 13 -9 19 -11 9 -12 6
-8 -15z"/>
<path d="M2517 3986 c-14 -13 -24 -27 -21 -30 2 -3 -2 -2 -8 4 -18 15 -38 12
-38 -5 0 -8 -4 -15 -9 -15 -16 0 -19 -49 -4 -70 16 -23 40 -25 64 -7 23 17 41
56 33 69 -4 6 -3 8 4 4 6 -4 10 1 10 11 -1 10 2 28 6 41 10 29 -4 28 -37 -2z
m-47 -40 c0 -8 -7 -16 -15 -20 -12 -4 -13 -2 -2 14 14 24 17 25 17 6z"/>
<path d="M390 3561 c0 -25 -38 -467 -44 -508 l-5 -33 63 0 63 0 6 78 c4 42 9
116 13 164 4 48 10 85 14 83 4 -3 31 -75 61 -160 l53 -156 39 3 40 3 55 159
c39 111 58 153 62 140 4 -11 10 -68 14 -129 4 -60 10 -127 13 -147 l6 -38 60
0 60 0 -7 73 c-3 39 -9 101 -12 137 -4 36 -4 63 -1 60 3 -3 33 -53 65 -110
l60 -105 -56 -108 c-53 -100 -58 -106 -66 -82 -9 23 -14 25 -78 25 -48 0 -68
-4 -68 -12 0 -18 -38 -431 -46 -496 l-6 -53 64 3 63 3 12 147 c6 81 13 155 16
165 5 22 5 21 71 -169 l48 -138 38 0 38 0 38 108 c64 182 76 214 80 209 3 -2
10 -76 17 -163 l12 -159 64 -3 63 -3 -4 35 c-2 20 -3 36 -2 36 2 0 17 -13 34
-29 74 -67 202 -65 276 4 l34 32 14 -22 c8 -13 36 -33 61 -45 55 -27 112 -23
156 9 35 26 39 26 39 1 0 -18 7 -20 55 -20 l55 0 0 289 0 289 -50 4 c-28 1
-55 2 -60 0 -6 -2 -10 -56 -10 -133 l0 -129 -23 15 c-13 8 -44 18 -69 21 -57
8 -132 -24 -156 -67 l-16 -27 -37 38 c-38 39 -88 60 -145 60 -44 0 -130 -46
-153 -82 l-19 -32 -6 35 c-3 19 -8 66 -11 104 -3 39 -8 94 -11 123 l-6 52 -67
0 -66 0 -60 -160 c-33 -87 -63 -156 -67 -152 -4 4 -27 59 -51 122 l-44 115 59
5 60 5 134 255 c73 140 134 258 134 263 0 4 -29 7 -64 7 l-65 0 -43 -91 -43
-92 -50 92 -49 91 -52 0 -52 0 -7 78 c-12 141 -7 133 -82 130 l-66 -3 -61
-158 c-33 -86 -63 -154 -66 -150 -4 5 -33 77 -65 161 l-58 152 -69 0 c-60 0
-68 -2 -68 -19z m1194 -953 c9 -12 16 -26 16 -30 0 -11 -127 -10 -134 0 -3 5
2 18 10 30 21 31 87 31 108 0z m362 -22 c58 -49 20 -146 -57 -146 -41 0 -79
39 -79 82 1 76 80 113 136 64z m-253 -108 c2 -18 3 -34 2 -36 -1 -2 -19 5 -39
14 -33 16 -37 16 -53 2 -51 -46 -143 -18 -143 43 0 5 51 9 114 9 l114 0 5 -32z"/>
<path d="M2120 2890 c-43 -43 -10 -110 54 -110 25 0 39 7 50 22 35 49 7 108
-50 108 -21 0 -42 -8 -54 -20z"/>
<path d="M2600 2906 c0 -2 50 -122 111 -267 61 -145 113 -270 116 -276 3 -8
24 -13 53 -13 29 0 50 5 53 13 3 6 55 130 116 275 61 145 111 266 111 268 0 2
-31 4 -69 4 l-69 0 -68 -180 c-38 -99 -71 -180 -74 -180 -3 0 -36 81 -74 180
l-68 180 -69 0 c-38 0 -69 -2 -69 -4z"/>
<path d="M2346 2700 c-37 -12 -84 -56 -102 -95 -13 -29 -13 -28 -14 33 l0 62
-60 0 -60 0 0 -175 0 -175 60 0 60 0 0 63 c1 60 1 61 14 32 21 -48 79 -93 131
-100 37 -6 54 -3 95 17 46 23 50 24 50 6 0 -15 8 -18 55 -18 l55 0 0 175 0
175 -55 0 c-42 0 -55 -3 -55 -15 0 -19 -5 -19 -34 0 -29 19 -103 27 -140 15z
m145 -119 c31 -31 36 -55 18 -94 -11 -25 -47 -47 -74 -47 -45 0 -85 43 -85 91
0 30 53 79 85 79 16 0 38 -12 56 -29z"/>
<path d="M3215 2692 c-129 -62 -155 -209 -52 -299 45 -40 106 -57 166 -48 54
8 77 19 114 53 l27 26 0 -37 0 -37 60 0 60 0 0 105 c0 99 2 107 25 130 26 27
49 31 88 16 22 -8 26 -5 46 36 12 24 19 48 16 53 -10 16 -69 22 -100 10 -17
-6 -40 -21 -52 -32 l-23 -21 0 26 c0 26 -2 27 -60 27 l-60 0 0 -51 0 -52 -23
33 c-47 70 -154 99 -232 62z m127 -79 c35 -32 23 -43 -47 -43 -58 0 -65 2 -65
20 0 38 77 55 112 23z m128 -143 l0 -40 -39 19 c-38 20 -38 20 -79 0 -36 -18
-46 -19 -77 -9 -33 11 -55 35 -55 59 0 7 43 11 125 11 l125 0 0 -40z"/>
<path d="M3825 2695 c-22 -8 -41 -15 -42 -15 -8 0 -33 -63 -33 -83 0 -37 38
-77 97 -104 40 -17 54 -28 51 -41 -4 -23 -49 -27 -88 -7 -36 18 -44 15 -66
-27 -15 -30 -15 -32 2 -45 73 -53 232 -35 261 30 l12 25 36 -34 c63 -59 158
-68 245 -24 33 17 60 45 60 63 0 2 -18 12 -40 22 -39 18 -41 17 -61 -1 -43
-39 -139 -13 -139 38 0 16 10 18 125 18 l125 0 0 32 c0 41 -33 108 -65 131
-40 29 -122 42 -173 28 -59 -16 -120 -78 -128 -130 l-6 -39 -52 23 c-28 12
-59 25 -68 28 -26 9 -22 36 7 43 13 3 39 1 56 -5 18 -6 33 -11 35 -11 5 0 34
58 34 68 0 11 -77 32 -117 32 -15 -1 -46 -7 -68 -15z m419 -87 c8 -12 13 -25
10 -30 -8 -13 -134 -10 -134 4 0 47 96 67 124 26z"/>
</g>
</svg>
